<svg width="140" height="18" viewBox="0 0 140 18" fill="none" xmlns="http://www.w3.org/2000/svg">
<path d="M9.936 11.216V17H5.808V11.216L0.216 1.16H4.488L6.72 5.504L7.896 8.144L9.096 5.504L11.328 1.16H15.528L9.936 11.216ZM23.6544 0.92C25.2544 0.92 26.6304 1.248 27.7824 1.904C28.9504 2.544 29.8464 3.48 30.4704 4.712C31.0944 5.928 31.4064 7.384 31.4064 9.08C31.4064 10.776 31.0944 12.24 30.4704 13.472C29.8464 14.688 28.9504 15.624 27.7824 16.28C26.6304 16.92 25.2544 17.24 23.6544 17.24C22.0544 17.24 20.6704 16.92 19.5024 16.28C18.3344 15.624 17.4384 14.688 16.8144 13.472C16.1904 12.24 15.8784 10.776 15.8784 9.08C15.8784 7.384 16.1904 5.928 16.8144 4.712C17.4384 3.48 18.3344 2.544 19.5024 1.904C20.6704 1.248 22.0544 0.92 23.6544 0.92ZM23.6544 4.16C22.5024 4.16 21.6224 4.576 21.0144 5.408C20.4064 6.24 20.1024 7.464 20.1024 9.08C20.1024 10.696 20.4064 11.92 21.0144 12.752C21.6224 13.584 22.5024 14 23.6544 14C24.8064 14 25.6784 13.584 26.2704 12.752C26.8784 11.92 27.1824 10.696 27.1824 9.08C27.1824 7.464 26.8784 6.24 26.2704 5.408C25.6784 4.576 24.8064 4.16 23.6544 4.16ZM48.2677 10.544C48.2677 12.768 47.6757 14.44 46.4917 15.56C45.3077 16.68 43.5397 17.24 41.1877 17.24C38.8517 17.24 37.0837 16.68 35.8837 15.56C34.6997 14.44 34.1077 12.768 34.1077 10.544V1.16H38.2597V10.616C38.2597 11.752 38.4997 12.6 38.9797 13.16C39.4597 13.72 40.1957 14 41.1877 14C43.1717 14 44.1637 12.872 44.1637 10.616V1.16H48.2677V10.544ZM58.1831 11.216H55.7111V17H51.6551V1.16H59.2151C61.1351 1.16 62.6071 1.592 63.6311 2.456C64.6711 3.32 65.1911 4.568 65.1911 6.2C65.1911 7.352 64.9271 8.312 64.3991 9.08C63.8711 9.848 63.1031 10.416 62.0951 10.784L66.1271 17H61.5671L58.1831 11.216ZM55.7111 8.288H58.5191C59.3991 8.288 60.0391 8.128 60.4391 7.808C60.8391 7.488 61.0391 6.976 61.0391 6.272C61.0391 5.584 60.8391 5.08 60.4391 4.76C60.0391 4.44 59.3991 4.28 58.5191 4.28H55.7111V8.288ZM87.4412 13.808V17H75.3692V1.16H79.4972V13.808H87.4412ZM96.5451 0.92C98.1451 0.92 99.5211 1.248 100.673 1.904C101.841 2.544 102.737 3.48 103.361 4.712C103.985 5.928 104.297 7.384 104.297 9.08C104.297 10.776 103.985 12.24 103.361 13.472C102.737 14.688 101.841 15.624 100.673 16.28C99.5211 16.92 98.1451 17.24 96.5451 17.24C94.9451 17.24 93.5611 16.92 92.3931 16.28C91.2251 15.624 90.3291 14.688 89.7051 13.472C89.0811 12.24 88.7691 10.776 88.7691 9.08C88.7691 7.384 89.0811 5.928 89.7051 4.712C90.3291 3.48 91.2251 2.544 92.3931 1.904C93.5611 1.248 94.9451 0.92 96.5451 0.92ZM96.5451 4.16C95.3931 4.16 94.5131 4.576 93.9051 5.408C93.2971 6.24 92.9931 7.464 92.9931 9.08C92.9931 10.696 93.2971 11.92 93.9051 12.752C94.5131 13.584 95.3931 14 96.5451 14C97.6971 14 98.5691 13.584 99.1611 12.752C99.7691 11.92 100.073 10.696 100.073 9.08C100.073 7.464 99.7691 6.24 99.1611 5.408C98.5691 4.576 97.6971 4.16 96.5451 4.16ZM121.494 8.432V17H118.614L118.494 15.128C117.582 16.536 116.07 17.24 113.958 17.24C112.518 17.24 111.238 16.928 110.118 16.304C109.014 15.664 108.15 14.736 107.526 13.52C106.902 12.288 106.59 10.816 106.59 9.104C106.59 7.408 106.91 5.952 107.55 4.736C108.19 3.504 109.102 2.56 110.286 1.904C111.47 1.248 112.87 0.92 114.486 0.92C116.294 0.92 117.75 1.24 118.854 1.88C119.958 2.52 120.83 3.552 121.47 4.976L117.654 6.488C117.462 5.704 117.102 5.12 116.574 4.736C116.046 4.352 115.39 4.16 114.606 4.16C113.39 4.16 112.454 4.576 111.798 5.408C111.158 6.24 110.838 7.464 110.838 9.08C110.838 12.408 112.134 14.072 114.726 14.072C115.702 14.072 116.486 13.848 117.078 13.4C117.686 12.952 117.99 12.304 117.99 11.456V11.216H114.054V8.432H121.494ZM131.884 0.92C133.484 0.92 134.86 1.248 136.012 1.904C137.18 2.544 138.076 3.48 138.7 4.712C139.324 5.928 139.636 7.384 139.636 9.08C139.636 10.776 139.324 12.24 138.7 13.472C138.076 14.688 137.18 15.624 136.012 16.28C134.86 16.92 133.484 17.24 131.884 17.24C130.284 17.24 128.9 16.92 127.732 16.28C126.564 15.624 125.668 14.688 125.044 13.472C124.42 12.24 124.108 10.776 124.108 9.08C124.108 7.384 124.42 5.928 125.044 4.712C125.668 3.48 126.564 2.544 127.732 1.904C128.9 1.248 130.284 0.92 131.884 0.92ZM131.884 4.16C130.732 4.16 129.852 4.576 129.244 5.408C128.636 6.24 128.332 7.464 128.332 9.08C128.332 10.696 128.636 11.92 129.244 12.752C129.852 13.584 130.732 14 131.884 14C133.036 14 133.908 13.584 134.5 12.752C135.108 11.92 135.412 10.696 135.412 9.08C135.412 7.464 135.108 6.24 134.5 5.408C133.908 4.576 133.036 4.16 131.884 4.16Z" fill="#F5F5F5"/>
</svg>
