<?xml version="1.0" encoding="utf-8"?><svg viewBox="0 0 140 18" xmlns="http://www.w3.org/2000/svg" xmlns:xlink="http://www.w3.org/1999/xlink"><style>:root>svg{display:none}:root>svg:target{display:block}</style><svg fill="none" viewBox="0 0 140 18" id="logo" xmlns="http://www.w3.org/2000/svg"><path d="M9.936 11.216V17H5.808v-5.784L.216 1.16h4.272L6.72 5.504l1.176 2.64 1.2-2.64 2.232-4.344h4.2L9.936 11.216zM23.654.92c1.6 0 2.976.328 4.128.984 1.168.64 2.064 1.576 2.688 2.808.624 1.216.936 2.672.936 4.368 0 1.696-.312 3.16-.936 4.392a6.602 6.602 0 01-2.688 2.808c-1.152.64-2.528.96-4.128.96s-2.984-.32-4.152-.96a6.602 6.602 0 01-2.688-2.808c-.624-1.232-.936-2.696-.936-4.392 0-1.696.312-3.152.936-4.368.624-1.232 1.52-2.168 2.688-2.808C20.67 1.248 22.054.92 23.654.92zm0 3.24c-1.152 0-2.032.416-2.64 1.248-.608.832-.912 2.056-.912 3.672s.304 2.84.912 3.672c.608.832 1.488 1.248 2.64 1.248 1.152 0 2.024-.416 2.616-1.248.608-.832.912-2.056.912-3.672s-.304-2.84-.912-3.672c-.592-.832-1.464-1.248-2.616-1.248zm24.614 6.384c0 2.224-.592 3.896-1.776 5.016-1.184 1.12-2.952 1.68-5.304 1.68-2.336 0-4.104-.56-5.304-1.68-1.184-1.12-1.776-2.792-1.776-5.016V1.16h4.152v9.456c0 1.136.24 1.984.72 2.544s1.216.84 2.208.84c1.984 0 2.976-1.128 2.976-3.384V1.16h4.104v9.384zm9.915.672h-2.472V17h-4.056V1.16h7.56c1.92 0 3.392.432 4.416 1.296 1.04.864 1.56 2.112 1.56 3.744 0 1.152-.264 2.112-.792 2.88-.528.768-1.296 1.336-2.304 1.704L66.127 17h-4.56l-3.384-5.784zm-2.472-2.928h2.808c.88 0 1.52-.16 1.92-.48.4-.32.6-.832.6-1.536 0-.688-.2-1.192-.6-1.512-.4-.32-1.04-.48-1.92-.48h-2.808v4.008zm31.73 5.52V17H75.37V1.16h4.128v12.648h7.944zM96.545.92c1.6 0 2.976.328 4.128.984 1.168.64 2.064 1.576 2.688 2.808.624 1.216.936 2.672.936 4.368 0 1.696-.312 3.16-.936 4.392a6.602 6.602 0 01-2.688 2.808c-1.152.64-2.528.96-4.128.96s-2.984-.32-4.152-.96a6.602 6.602 0 01-2.688-2.808c-.624-1.232-.936-2.696-.936-4.392 0-1.696.312-3.152.936-4.368.624-1.232 1.52-2.168 2.688-2.808 1.168-.656 2.552-.984 4.152-.984zm0 3.24c-1.152 0-2.032.416-2.64 1.248-.608.832-.912 2.056-.912 3.672s.304 2.84.912 3.672c.608.832 1.488 1.248 2.64 1.248 1.152 0 2.024-.416 2.616-1.248.608-.832.912-2.056.912-3.672s-.304-2.84-.912-3.672c-.592-.832-1.464-1.248-2.616-1.248zm24.949 4.272V17h-2.88l-.12-1.872c-.912 1.408-2.424 2.112-4.536 2.112-1.44 0-2.72-.312-3.84-.936-1.104-.64-1.968-1.568-2.592-2.784-.624-1.232-.936-2.704-.936-4.416 0-1.696.32-3.152.96-4.368.64-1.232 1.552-2.176 2.736-2.832 1.184-.656 2.584-.984 4.2-.984 1.808 0 3.264.32 4.368.96 1.104.64 1.976 1.672 2.616 3.096l-3.816 1.512c-.192-.784-.552-1.368-1.08-1.752-.528-.384-1.184-.576-1.968-.576-1.216 0-2.152.416-2.808 1.248-.64.832-.96 2.056-.96 3.672 0 3.328 1.296 4.992 3.888 4.992.976 0 1.76-.224 2.352-.672.608-.448.912-1.096.912-1.944v-.24h-3.936V8.432h7.44zM131.884.92c1.6 0 2.976.328 4.128.984 1.168.64 2.064 1.576 2.688 2.808.624 1.216.936 2.672.936 4.368 0 1.696-.312 3.16-.936 4.392a6.602 6.602 0 01-2.688 2.808c-1.152.64-2.528.96-4.128.96s-2.984-.32-4.152-.96a6.602 6.602 0 01-2.688-2.808c-.624-1.232-.936-2.696-.936-4.392 0-1.696.312-3.152.936-4.368.624-1.232 1.52-2.168 2.688-2.808 1.168-.656 2.552-.984 4.152-.984zm0 3.24c-1.152 0-2.032.416-2.64 1.248-.608.832-.912 2.056-.912 3.672s.304 2.84.912 3.672c.608.832 1.488 1.248 2.64 1.248 1.152 0 2.024-.416 2.616-1.248.608-.832.912-2.056.912-3.672s-.304-2.84-.912-3.672c-.592-.832-1.464-1.248-2.616-1.248z" fill="#F5F5F5"/></svg></svg>