<?xml version="1.0" encoding="utf-8"?><svg viewBox="0 0 140 24" xmlns="http://www.w3.org/2000/svg" xmlns:xlink="http://www.w3.org/1999/xlink"><style>:root>svg{display:none}:root>svg:target{display:block}</style><svg fill="none" viewBox="0 0 24 24" id="fb" xmlns="http://www.w3.org/2000/svg"><path d="M17 2v4h-2c-.69 0-1 .81-1 1.5V10h3v4h-3v8h-4v-8H7v-4h3V6a4 4 0 014-4h3z" fill="currentColor"/></svg><svg fill="none" viewBox="0 0 24 24" id="in" xmlns="http://www.w3.org/2000/svg"><path d="M16.032 3H7.967A4.973 4.973 0 003 7.967v8.066A4.973 4.973 0 007.967 21h8.066A4.973 4.973 0 0021 16.033V7.967A4.973 4.973 0 0016.032 3zm3.371 13.033a3.374 3.374 0 01-3.37 3.37H7.967a3.374 3.374 0 01-3.37-3.37V7.967a3.374 3.374 0 013.37-3.37h8.066a3.374 3.374 0 013.37 3.37v8.066z" fill="currentColor"/><path d="M12 7.362A4.643 4.643 0 007.362 12 4.643 4.643 0 0012 16.638 4.643 4.643 0 0016.638 12 4.643 4.643 0 0012 7.362zm0 7.679a3.044 3.044 0 01-3.041-3.04A3.045 3.045 0 0112 8.958 3.045 3.045 0 0115.041 12 3.044 3.044 0 0112 15.041zM16.833 6.008a1.176 1.176 0 00-1.171 1.171c0 .308.125.61.343.828.218.218.52.343.828.343.308 0 .61-.125.828-.343a1.176 1.176 0 000-1.657 1.176 1.176 0 00-.828-.342z" fill="currentColor"/></svg><svg fill="none" viewBox="0 0 140 18" id="logo" xmlns="http://www.w3.org/2000/svg"><path d="M9.936 11.216V17H5.808v-5.784L.216 1.16h4.272L6.72 5.504l1.176 2.64 1.2-2.64 2.232-4.344h4.2L9.936 11.216zM23.654.92c1.6 0 2.976.328 4.128.984 1.168.64 2.064 1.576 2.688 2.808.624 1.216.936 2.672.936 4.368 0 1.696-.312 3.16-.936 4.392a6.602 6.602 0 01-2.688 2.808c-1.152.64-2.528.96-4.128.96s-2.984-.32-4.152-.96a6.602 6.602 0 01-2.688-2.808c-.624-1.232-.936-2.696-.936-4.392 0-1.696.312-3.152.936-4.368.624-1.232 1.52-2.168 2.688-2.808C20.67 1.248 22.054.92 23.654.92zm0 3.24c-1.152 0-2.032.416-2.64 1.248-.608.832-.912 2.056-.912 3.672s.304 2.84.912 3.672c.608.832 1.488 1.248 2.64 1.248 1.152 0 2.024-.416 2.616-1.248.608-.832.912-2.056.912-3.672s-.304-2.84-.912-3.672c-.592-.832-1.464-1.248-2.616-1.248zm24.614 6.384c0 2.224-.592 3.896-1.776 5.016-1.184 1.12-2.952 1.68-5.304 1.68-2.336 0-4.104-.56-5.304-1.68-1.184-1.12-1.776-2.792-1.776-5.016V1.16h4.152v9.456c0 1.136.24 1.984.72 2.544s1.216.84 2.208.84c1.984 0 2.976-1.128 2.976-3.384V1.16h4.104v9.384zm9.915.672h-2.472V17h-4.056V1.16h7.56c1.92 0 3.392.432 4.416 1.296 1.04.864 1.56 2.112 1.56 3.744 0 1.152-.264 2.112-.792 2.88-.528.768-1.296 1.336-2.304 1.704L66.127 17h-4.56l-3.384-5.784zm-2.472-2.928h2.808c.88 0 1.52-.16 1.92-.48.4-.32.6-.832.6-1.536 0-.688-.2-1.192-.6-1.512-.4-.32-1.04-.48-1.92-.48h-2.808v4.008zm31.73 5.52V17H75.37V1.16h4.128v12.648h7.944zM96.545.92c1.6 0 2.976.328 4.128.984 1.168.64 2.064 1.576 2.688 2.808.624 1.216.936 2.672.936 4.368 0 1.696-.312 3.16-.936 4.392a6.602 6.602 0 01-2.688 2.808c-1.152.64-2.528.96-4.128.96s-2.984-.32-4.152-.96a6.602 6.602 0 01-2.688-2.808c-.624-1.232-.936-2.696-.936-4.392 0-1.696.312-3.152.936-4.368.624-1.232 1.52-2.168 2.688-2.808 1.168-.656 2.552-.984 4.152-.984zm0 3.24c-1.152 0-2.032.416-2.64 1.248-.608.832-.912 2.056-.912 3.672s.304 2.84.912 3.672c.608.832 1.488 1.248 2.64 1.248 1.152 0 2.024-.416 2.616-1.248.608-.832.912-2.056.912-3.672s-.304-2.84-.912-3.672c-.592-.832-1.464-1.248-2.616-1.248zm24.949 4.272V17h-2.88l-.12-1.872c-.912 1.408-2.424 2.112-4.536 2.112-1.44 0-2.72-.312-3.84-.936-1.104-.64-1.968-1.568-2.592-2.784-.624-1.232-.936-2.704-.936-4.416 0-1.696.32-3.152.96-4.368.64-1.232 1.552-2.176 2.736-2.832 1.184-.656 2.584-.984 4.2-.984 1.808 0 3.264.32 4.368.96 1.104.64 1.976 1.672 2.616 3.096l-3.816 1.512c-.192-.784-.552-1.368-1.08-1.752-.528-.384-1.184-.576-1.968-.576-1.216 0-2.152.416-2.808 1.248-.64.832-.96 2.056-.96 3.672 0 3.328 1.296 4.992 3.888 4.992.976 0 1.76-.224 2.352-.672.608-.448.912-1.096.912-1.944v-.24h-3.936V8.432h7.44zM131.884.92c1.6 0 2.976.328 4.128.984 1.168.64 2.064 1.576 2.688 2.808.624 1.216.936 2.672.936 4.368 0 1.696-.312 3.16-.936 4.392a6.602 6.602 0 01-2.688 2.808c-1.152.64-2.528.96-4.128.96s-2.984-.32-4.152-.96a6.602 6.602 0 01-2.688-2.808c-.624-1.232-.936-2.696-.936-4.392 0-1.696.312-3.152.936-4.368.624-1.232 1.52-2.168 2.688-2.808 1.168-.656 2.552-.984 4.152-.984zm0 3.24c-1.152 0-2.032.416-2.64 1.248-.608.832-.912 2.056-.912 3.672s.304 2.84.912 3.672c.608.832 1.488 1.248 2.64 1.248 1.152 0 2.024-.416 2.616-1.248.608-.832.912-2.056.912-3.672s-.304-2.84-.912-3.672c-.592-.832-1.464-1.248-2.616-1.248z" fill="#F5F5F5"/></svg><svg fill="none" viewBox="0 0 31 16" id="to-top" xmlns="http://www.w3.org/2000/svg"><path d="M30 15L14.763 1 1 15" stroke="currentColor"/></svg><svg fill="none" viewBox="0 0 24 24" id="tw" xmlns="http://www.w3.org/2000/svg"><path d="M22.46 6c-.77.35-1.6.58-2.46.69.88-.53 1.56-1.37 1.88-2.38-.83.5-1.75.85-2.72 1.05C18.37 4.5 17.26 4 16 4c-2.35 0-4.27 1.92-4.27 4.29 0 .34.04.67.11.98C8.28 9.09 5.11 7.38 3 4.79c-.37.63-.58 1.37-.58 2.15 0 1.49.75 2.81 1.91 3.56-.71 0-1.37-.2-1.95-.5v.03c0 2.08 1.48 3.82 3.44 4.21a4.22 4.22 0 01-1.93.07 4.28 4.28 0 004 2.98 8.521 8.521 0 01-5.33 1.84c-.34 0-.68-.02-1.02-.06C3.44 20.29 5.7 21 8.12 21 16 21 20.33 14.46 20.33 8.79c0-.19 0-.37-.01-.56.84-.6 1.56-1.36 2.14-2.23z" fill="currentColor"/></svg></svg>